<!-- Generated by IcoMoon.io -->
<svg version="1.1" xmlns="http://www.w3.org/2000/svg" width="961" height="1024" viewBox="0 0 961 1024">
<title></title>
<g id="icomoon-ignore">
</g>
<path fill="#1b181d" d="M3.751 562.637h953.983v7.502h-953.983v-7.502z"></path>
<path fill="#1b181d" d="M3.751 1016.498h953.983v7.502h-953.983v-7.502z"></path>
<path fill="#21548f" d="M541.382 0v277.568h-112.527v-277.568h-425.104v482.618h775.189v-136.283h181.294v-346.335h-418.852zM188.796 433.856h-131.282v-236.308h131.282v236.308zM188.796 148.786h-131.282v-100.024h131.282v100.024zM541.382 433.856h-297.573v-385.094h131.282v277.568h166.291v107.526zM906.471 148.786h-181.294v48.762h180.044v100.024h-180.044v137.534h-131.282v-386.344h311.326v100.024z"></path>
<path fill="#fffffe" d="M593.895 433.856h131.282v-136.283h181.294v-100.024h-181.294v-48.762h181.294v-100.024h-312.576z"></path>
<path fill="#fffffe" d="M375.092 48.762h-131.282v385.094h297.573v-107.526h-166.291z"></path>
<path fill="#fffffe" d="M57.514 197.548h131.282v236.308h-131.282v-236.308z"></path>
<path fill="#fffffe" d="M57.514 48.762h131.282v100.024h-131.282v-100.024z"></path>
<path fill="#1b181d" d="M57.514 658.911c8.752 0 16.254 2.501 21.255 5.001l3.751-11.253c-3.751-2.501-12.503-5.001-25.006-5.001-32.508 0-55.013 22.505-55.013 56.264 0 35.009 22.505 55.013 52.513 55.013 12.503 0 23.756-2.501 27.507-5.001l-2.501-11.253c-5.001 2.501-13.753 5.001-22.505 5.001-26.256 0-41.26-16.254-41.26-43.761 0-28.757 16.254-45.011 41.26-45.011z"></path>
<path fill="#1b181d" d="M200.049 701.421c0-32.508-18.755-55.013-47.512-55.013s-48.762 22.505-48.762 56.264c0 32.508 20.005 55.013 47.512 55.013v0c26.256 0 48.762-18.755 48.762-56.264zM151.287 746.432v0c-21.255 0-33.758-21.255-33.758-43.761 0-23.756 11.253-45.011 33.758-45.011s33.758 22.505 33.758 43.761c0 25.006-12.503 45.011-33.758 45.011z"></path>
<path fill="#1b181d" d="M276.317 702.672l-33.758-55.013h-15.004v107.526h12.503v-46.261c0-17.504 0-31.258-1.25-45.011v0c5.001 11.253 12.503 23.756 20.005 36.259l33.758 55.013h13.753v-107.526h-12.503v45.011c0 16.254 0 30.007 1.25 43.761v0c-5.001-10.002-11.253-20.005-18.755-33.758z"></path>
<path fill="#1b181d" d="M363.839 746.432c-10.002 0-18.755-2.501-25.006-7.502l-3.751 11.253c6.252 3.751 17.504 7.502 27.507 7.502 25.006 0 37.509-15.004 37.509-31.258s-8.752-25.006-27.507-31.258c-15.004-6.252-21.255-11.253-21.255-21.255 0-7.502 5.001-16.254 20.005-16.254 10.002 0 16.254 2.501 20.005 5.001l3.751-11.253c-5.001-2.501-12.503-5.001-23.756-5.001-21.255 0-35.009 12.503-35.009 28.757 0 15.004 11.253 23.756 27.507 31.258 13.753 5.001 20.005 11.253 20.005 21.255 1.25 11.253-6.252 18.755-20.005 18.755z"></path>
<path fill="#1b181d" d="M427.604 648.908v63.766c0 33.758 16.254 46.261 38.759 46.261s40.010-13.753 40.010-46.261v-62.515h-13.753v62.515c0 23.756-10.002 33.758-26.256 33.758-13.753 0-25.006-10.002-25.006-33.758v-63.766h-13.753z"></path>
<path fill="#1b181d" d="M540.132 648.908v107.526h58.764v-11.253h-45.011v-96.274z"></path>
<path fill="#1b181d" d="M598.896 660.161h32.508v96.274h13.753v-96.274h32.508v-11.253h-78.769z"></path>
<path fill="#1b181d" d="M698.921 648.908h13.753v107.526h-13.753v-107.526z"></path>
<path fill="#1b181d" d="M796.444 702.672l-33.758-55.013h-15.004v107.526h12.503v-46.261c0-17.504 0-31.258-1.25-45.011v0c5.001 11.253 12.503 23.756 20.005 36.259l33.758 55.013h13.753v-107.526h-12.503v45.011c0 16.254 0 30.007 1.25 43.761v0c-5.001-10.002-11.253-20.005-18.755-33.758z"></path>
<path fill="#1b181d" d="M911.473 658.911c11.253 0 17.504 2.501 23.756 5.001l3.751-11.253c-5.001-2.501-13.753-5.001-26.256-5.001-36.259 0-57.514 23.756-57.514 55.013 0 16.254 6.252 31.258 15.004 40.010 10.002 10.002 23.756 13.753 40.010 13.753 15.004 0 26.256-3.751 32.508-6.252v-50.012h-35.009v11.253h21.255v32.508c-3.751 1.25-8.752 2.501-18.755 2.501-25.006 0-41.26-16.254-41.26-43.761s16.254-43.761 42.51-43.761z"></path>
<path fill="#1b181d" d="M60.015 933.978h-46.261v-38.759h41.26v-11.253h-41.26v-33.758h43.761v-12.503h-57.514v108.777h60.015z"></path>
<path fill="#1b181d" d="M136.283 891.468l33.758 55.013h13.753v-108.777h-12.503v45.011c0 16.254 0 30.007 1.25 43.761v0c-5.001-11.253-11.253-22.505-18.755-35.009l-35.009-53.763h-15.004v107.526h12.503v-45.011c0-17.504 0-31.258-1.25-45.011v0c7.502 11.253 13.753 23.756 21.255 36.259z"></path>
<path fill="#1b181d" d="M285.070 848.957c11.253 0 17.504 2.501 23.756 5.001l3.751-11.253c-5.001-2.501-13.753-5.001-26.256-5.001-35.009 0-57.514 23.756-57.514 55.013 0 16.254 6.252 31.258 15.004 40.010 10.002 10.002 23.756 13.753 40.010 13.753 13.753 0 26.256-3.751 32.508-6.252v-51.263h-35.009v11.253h21.255v32.508c-3.751 1.25-8.752 2.501-18.755 2.501-25.006 0-41.26-16.254-41.26-43.761 0-26.256 16.254-42.51 42.51-42.51z"></path>
<path fill="#1b181d" d="M362.589 837.705h13.753v107.526h-13.753v-107.526z"></path>
<path fill="#1b181d" d="M426.354 946.481h12.503v-46.261c0-17.504 0-31.258-1.25-45.011v0c5.001 11.253 12.503 23.756 20.005 36.259l33.758 55.013h13.753v-108.777h-12.503v45.011c0 16.254 0 30.007 1.25 43.761v0c-5.001-11.253-11.253-22.505-18.755-35.009l-33.758-53.763h-15.004v108.777z"></path>
<path fill="#1b181d" d="M613.9 850.208v-12.503h-57.514v108.777h60.015v-12.503h-46.261v-38.759h41.26v-11.253h-41.26v-33.758z"></path>
<path fill="#1b181d" d="M660.161 946.481h60.015v-12.503h-46.261v-38.759h41.26v-11.253h-41.26v-33.758h43.761v-12.503h-57.514z"></path>
<path fill="#1b181d" d="M830.203 866.462c0-8.752-3.751-16.254-8.752-20.005-6.252-6.252-16.254-8.752-31.258-8.752-8.752 0-18.755 1.25-26.256 2.501v106.276h13.753v-46.261h12.503c12.503 0 18.755 6.252 21.255 21.255 2.501 13.753 5.001 22.505 7.502 26.256h13.753c-2.501-3.751-5.001-15.004-7.502-30.007-2.501-11.253-7.502-18.755-15.004-21.255v0c11.253-6.252 20.005-15.004 20.005-30.007zM792.694 888.967h-13.753v-38.759c2.501-1.25 7.502-1.25 13.753-1.25 15.004 0 25.006 6.252 25.006 20.005-1.25 11.253-11.253 20.005-25.006 20.005z"></path>
<path fill="#1b181d" d="M897.719 936.479c-10.002 0-18.755-2.501-25.006-7.502l-3.751 11.253c6.252 3.751 16.254 7.502 27.507 7.502 25.006 0 37.509-15.004 37.509-31.258s-8.752-25.006-27.507-31.258c-15.004-6.252-21.255-11.253-21.255-21.255 0-7.502 5.001-16.254 20.005-16.254 10.002 0 16.254 2.501 20.005 5.001l3.751-11.253c-5.001-2.501-12.503-5.001-23.756-5.001-21.255 0-33.758 12.503-33.758 28.757 0 15.004 11.253 23.756 27.507 31.258 13.753 5.001 20.005 11.253 20.005 21.255 1.25 11.253-6.252 18.755-21.255 18.755z"></path>
</svg>
